<svg width="24" height="24" viewBox="0 0 24 24" fill="none" xmlns="http://www.w3.org/2000/svg">
<rect width="24" height="24" rx="6" fill="#E9ECEF"/>
<path d="M8.84464 11.3981L6.98986 7.3315L5.13507 11.3981H5.90653L6.38254 12.9516H4.42927L3.72347 14.505H2L6.12812 5.44458H7.85159L10.6666 11.6259L9.969 13.8625L9.55044 12.9516L8.84464 11.3981Z" fill="url(#paint0_linear_1552:35572)"/>
<path d="M21.9999 13.1223C21.565 13.5534 21.0561 13.895 20.4816 14.139C19.9071 14.383 19.2916 14.505 18.6269 14.505C17.9703 14.505 17.3548 14.383 16.7803 14.139C16.1976 13.895 15.697 13.5534 15.262 13.1305C14.827 12.6994 14.4905 12.2033 14.2443 11.6258C13.9981 11.0484 13.875 10.4384 13.875 9.79583C13.875 9.14517 13.9981 8.53518 14.2443 7.96585C14.4905 7.38839 14.8352 6.89226 15.262 6.46119C15.697 6.03013 16.1976 5.69667 16.7803 5.45267C17.363 5.20867 17.9785 5.08667 18.6269 5.08667C19.2916 5.08667 19.9071 5.20867 20.4816 5.45267C21.0561 5.69667 21.565 6.03826 21.9999 6.46933L20.892 7.56732C20.5883 7.26639 20.2436 7.03052 19.8579 6.87599C19.4722 6.71332 19.0618 6.64013 18.6269 6.64013C18.2001 6.64013 17.7979 6.72146 17.4122 6.87599C17.0265 7.03866 16.6818 7.26639 16.3781 7.56732C16.0745 7.86825 15.8365 8.20985 15.6805 8.59211C15.5164 8.97437 15.4425 9.3729 15.4425 9.79583C15.4425 10.2188 15.5246 10.6254 15.6805 11.0077C15.8447 11.39 16.0745 11.7316 16.3781 12.0406C16.6818 12.3415 17.0265 12.5693 17.4122 12.7238C17.7979 12.8783 18.2001 12.9597 18.6269 12.9597C19.0618 12.9597 19.4722 12.8783 19.8579 12.7238C20.2436 12.5693 20.5883 12.3415 20.892 12.0406L21.9999 13.1223Z" fill="url(#paint1_linear_1552:35572)"/>
<path d="M16.5919 11.7397L17.0515 10.1619H18.6847L18.0035 12.4799C17.5439 12.3741 16.9777 12.0569 16.5919 11.7397ZM10.4777 19.2223H8.84453L5.96387 10.1537H7.61347L9.6406 16.5384L11.5118 10.1537H13.1614L15.1885 16.5384L15.8697 14.2204C16.0174 14.3098 17.0515 14.7653 17.3142 14.8385L16.0257 19.2223H14.3925L12.3407 12.8377L10.4777 19.2223Z" fill="url(#paint2_linear_1552:35572)"/>
<path d="M13.1531 8.99882H11.5117L12.3324 4.77765L13.1531 8.99882Z" fill="url(#paint3_linear_1552:35572)"/>
<defs>
<linearGradient id="paint0_linear_1552:35572" x1="6.3333" y1="5.44458" x2="6.3333" y2="14.505" gradientUnits="userSpaceOnUse">
<stop stop-color="#888888"/>
<stop offset="1" stop-color="#4F4F4F"/>
</linearGradient>
<linearGradient id="paint1_linear_1552:35572" x1="17.9375" y1="5.08667" x2="17.9375" y2="14.505" gradientUnits="userSpaceOnUse">
<stop stop-color="#888888"/>
<stop offset="1" stop-color="#4F4F4F"/>
</linearGradient>
<linearGradient id="paint2_linear_1552:35572" x1="12.3243" y1="10.1537" x2="12.3243" y2="19.2223" gradientUnits="userSpaceOnUse">
<stop stop-color="#FF9841"/>
<stop offset="0.0001" stop-color="#FFB270"/>
<stop offset="1" stop-color="#D96E13"/>
</linearGradient>
<linearGradient id="paint3_linear_1552:35572" x1="12.3324" y1="4.77765" x2="12.3324" y2="8.99882" gradientUnits="userSpaceOnUse">
<stop stop-color="#FF9841"/>
<stop offset="0.0001" stop-color="#FFB270"/>
<stop offset="1" stop-color="#D96E13"/>
</linearGradient>
</defs>
</svg>
