<svg width="24" height="24" viewBox="0 0 24 24" fill="none" xmlns="http://www.w3.org/2000/svg">
<rect width="24" height="24" rx="6" fill="url(#paint0_radial_1552:35587)"/>
<rect width="24" height="24" rx="6" fill="url(#paint1_radial_1552:35587)"/>
<path d="M11.9999 7.38525C10.7741 7.38525 9.59845 7.87145 8.73167 8.73689C7.86488 9.60233 7.37793 10.7761 7.37793 12C7.37793 13.2239 7.86488 14.3977 8.73167 15.2632C9.59845 16.1286 10.7741 16.6148 11.9999 16.6148C13.2257 16.6148 14.4013 16.1286 15.2681 15.2632C16.1349 14.3977 16.6218 13.2239 16.6218 12C16.6218 10.7761 16.1349 9.60233 15.2681 8.73689C14.4013 7.87145 13.2257 7.38525 11.9999 7.38525V7.38525ZM11.9999 14.997C11.2035 14.997 10.4398 14.6812 9.87667 14.1189C9.31356 13.5567 8.99721 12.7941 8.99721 11.999C8.99721 11.2039 9.31356 10.4414 9.87667 9.87912C10.4398 9.31688 11.2035 9.00102 11.9999 9.00102C12.7962 9.00102 13.56 9.31688 14.1231 9.87912C14.6862 10.4414 15.0025 11.2039 15.0025 11.999C15.0025 12.7941 14.6862 13.5567 14.1231 14.1189C13.56 14.6812 12.7962 14.997 11.9999 14.997V14.997Z" fill="white"/>
<path d="M16.7982 8.26949C17.3936 8.26949 17.8762 7.78782 17.8762 7.19365C17.8762 6.59947 17.3936 6.1178 16.7982 6.1178C16.2029 6.1178 15.7202 6.59947 15.7202 7.19365C15.7202 7.78782 16.2029 8.26949 16.7982 8.26949Z" fill="white"/>
<path d="M20.5232 6.0998C20.2918 5.50317 19.9382 4.96136 19.485 4.50904C19.0318 4.05672 18.489 3.70386 17.8914 3.47305C17.192 3.21094 16.4532 3.0692 15.7064 3.05389C14.7438 3.01198 14.4389 3 11.998 3C9.55709 3 9.24422 3 8.28965 3.05389C7.54337 3.06842 6.80507 3.21018 6.10662 3.47305C5.50882 3.70359 4.96589 4.05636 4.51266 4.50871C4.05943 4.96106 3.70591 5.50302 3.47479 6.0998C3.21221 6.79802 3.07058 7.53577 3.05598 8.28144C3.01299 9.24152 3 9.54591 3 11.984C3 14.4212 3 14.7315 3.05598 15.6866C3.07097 16.4331 3.21191 17.1697 3.47479 17.8693C3.70656 18.4658 4.06042 19.0076 4.51376 19.4599C4.9671 19.9121 5.50995 20.265 6.10762 20.496C6.80474 20.7687 7.54335 20.9205 8.29165 20.9451C9.25422 20.987 9.55908 21 12 21C14.4409 21 14.7538 21 15.7084 20.9451C16.4551 20.9299 17.1939 20.7886 17.8934 20.5269C18.4909 20.2956 19.0335 19.9424 19.4866 19.49C19.9398 19.0376 20.2935 18.4958 20.5252 17.8992C20.7881 17.2006 20.929 16.4641 20.944 15.7176C20.987 14.7575 21 14.4531 21 12.015C21 9.57685 21 9.26747 20.944 8.31238C20.9324 7.55616 20.79 6.80763 20.5232 6.0998V6.0998ZM19.3058 15.6128C19.2993 16.1879 19.1942 16.7577 18.9949 17.2974C18.8448 17.6855 18.615 18.0379 18.3203 18.332C18.0255 18.6261 17.6724 18.8553 17.2837 19.005C16.7491 19.203 16.1845 19.308 15.6144 19.3154C14.6648 19.3593 14.3969 19.3703 11.962 19.3703C9.5251 19.3703 9.27621 19.3703 8.30864 19.3154C7.73882 19.3084 7.17447 19.2034 6.64038 19.005C6.25024 18.8563 5.89571 18.6274 5.59973 18.3333C5.30375 18.0391 5.07291 17.6862 4.92215 17.2974C4.72568 16.7635 4.62059 16.2004 4.61128 15.6317C4.5683 14.6836 4.55831 14.4162 4.55831 11.985C4.55831 9.55289 4.55831 9.30439 4.61128 8.33733C4.61774 7.7625 4.72289 7.19303 4.92215 6.65369C5.22701 5.86627 5.85173 5.24651 6.64038 4.94511C7.17473 4.74764 7.73892 4.64268 8.30864 4.63473C9.25922 4.59182 9.5261 4.57984 11.962 4.57984C14.3979 4.57984 14.6478 4.57984 15.6144 4.63473C16.1845 4.64158 16.7492 4.74658 17.2837 4.94511C17.6724 5.09508 18.0255 5.32455 18.3202 5.61879C18.6149 5.91303 18.8447 6.26554 18.9949 6.65369C19.1914 7.18757 19.2964 7.75066 19.3058 8.31936C19.3487 9.26846 19.3597 9.53493 19.3597 11.9671C19.3597 14.3982 19.3597 14.6597 19.3167 15.6138H19.3058V15.6128Z" fill="white"/>
<defs>
<radialGradient id="paint0_radial_1552:35587" cx="0" cy="0" r="1" gradientUnits="userSpaceOnUse" gradientTransform="translate(6.37503 25.8485) rotate(-90) scale(23.7858 22.1226)">
<stop stop-color="#FFDD55"/>
<stop offset="0.1" stop-color="#FFDD55"/>
<stop offset="0.5" stop-color="#FF543E"/>
<stop offset="1" stop-color="#C837AB"/>
</radialGradient>
<radialGradient id="paint1_radial_1552:35587" cx="0" cy="0" r="1" gradientUnits="userSpaceOnUse" gradientTransform="translate(-4.02013 1.72892) rotate(78.6806) scale(10.6323 43.827)">
<stop stop-color="#3771C8"/>
<stop offset="0.128" stop-color="#3771C8"/>
<stop offset="1" stop-color="#6600FF" stop-opacity="0"/>
</radialGradient>
</defs>
</svg>
