<svg width="24" height="24" viewBox="0 0 24 24" fill="none" xmlns="http://www.w3.org/2000/svg">
<rect width="24" height="24" rx="6" fill="url(#paint0_linear_1552:35566)"/>
<path d="M20.25 5.3569L17.641 18.5549C17.641 18.5549 17.2757 19.4699 16.2717 19.0307L10.2501 14.3995L8.06003 13.3375L4.37398 12.0928C4.37398 12.0928 3.80834 11.8918 3.75303 11.4521C3.69876 11.013 4.39224 10.7748 4.39224 10.7748L19.0457 5.00882C19.0457 5.00882 20.25 4.47807 20.25 5.3569V5.3569Z" fill="#FEFEFE"/>
<path d="M9.78724 18.4053C9.78724 18.4053 9.61139 18.3886 9.39224 17.6935C9.17308 16.9973 8.06006 13.3365 8.06006 13.3365L16.911 7.69878C16.911 7.69878 17.4218 7.38734 17.4036 7.69878C17.4036 7.69878 17.4949 7.75374 17.2209 8.00969C16.947 8.26617 10.2684 14.2881 10.2684 14.2881" fill="#D3E5F1"/>
<path d="M12.559 16.175L10.1769 18.3535C10.1769 18.3535 9.99061 18.4953 9.78711 18.4063L10.2432 14.3603" fill="#B6D0E4"/>
<defs>
<linearGradient id="paint0_linear_1552:35566" x1="0" y1="0" x2="0" y2="24" gradientUnits="userSpaceOnUse">
<stop stop-color="#42BDE9"/>
<stop offset="1" stop-color="#23A8DD"/>
</linearGradient>
</defs>
</svg>
