<svg width="24" height="24" viewBox="0 0 24 24" fill="none" xmlns="http://www.w3.org/2000/svg"><rect width="24" height="24" rx="6" fill="#E9ECEF"/><path d="M13 4a1 1 0 1 0-2 0h2Zm-1.707 13.152a1 1 0 0 0 1.414 0l6.364-6.364a1 1 0 0 0-1.414-1.415L12 15.03 6.343 9.373a1 1 0 1 0-1.414 1.415l6.364 6.364ZM11 4v12.444h2V4h-2Z" fill="url(#a)"/><path stroke="url(#b)" stroke-width="2" stroke-linecap="round" d="M5 19h14"/><defs><linearGradient id="a" x1="12" y1="10.222" x2="11" y2="10.222" gradientUnits="userSpaceOnUse"><stop stop-color="#626579"/><stop offset="1" stop-color="#191A23"/></linearGradient><linearGradient id="b" x1="12" y1="20" x2="12" y2="21" gradientUnits="userSpaceOnUse"><stop stop-color="#626579"/><stop offset="1" stop-color="#191A23"/></linearGradient></defs></svg>