<svg width="24" height="24" viewBox="0 0 24 24" fill="none" xmlns="http://www.w3.org/2000/svg"><g clip-path="url(#a)"><rect width="24" height="24" rx="6" fill="#E9ECEF"/><g filter="url(#b)"><path d="M3.5 7a1 1 0 0 1 1-1h15a1 1 0 0 1 1 1v10a1 1 0 0 1-1 1h-15a1 1 0 0 1-1-1V7Z" fill="#B6D7FF"/><mask id="c" style="mask-type:alpha" maskUnits="userSpaceOnUse" x="3" y="6" width="18" height="12"><path d="M3.5 7a1 1 0 0 1 1-1h15a1 1 0 0 1 1 1v10a1 1 0 0 1-1 1h-15a1 1 0 0 1-1-1V7Z" fill="#EBEBEB"/></mask><g mask="url(#c)"><path d="M3.075 17.694 12 11l8.925 6.694v.806H3.075v-.806Z" fill="#85B1E6"/><path d="M3.075 6.329a.83.83 0 0 0 .353.68l7.999 5.59a1 1 0 0 0 1.145 0l7.998-5.59a.829.829 0 0 0-.475-1.509H3.903a.83.83 0 0 0-.829.829Z" fill="#689AD6"/></g></g></g><defs><clipPath id="a"><path fill="#fff" d="M0 0h24v24H0z"/></clipPath><filter id="b" x="-8.5" y="-2" width="41" height="36" filterUnits="userSpaceOnUse" color-interpolation-filters="sRGB"><feFlood flood-opacity="0" result="BackgroundImageFix"/><feColorMatrix in="SourceAlpha" values="0 0 0 0 0 0 0 0 0 0 0 0 0 0 0 0 0 0 127 0" result="hardAlpha"/><feOffset dy="4"/><feGaussianBlur stdDeviation="6"/><feColorMatrix values="0 0 0 0 0 0 0 0 0 0 0 0 0 0 0 0 0 0 0.08 0"/><feBlend in2="BackgroundImageFix" result="effect1_dropShadow_1552:35570"/><feBlend in="SourceGraphic" in2="effect1_dropShadow_1552:35570" result="shape"/></filter></defs></svg>