<svg width="24" height="24" viewBox="0 0 24 24" fill="none" xmlns="http://www.w3.org/2000/svg"><rect width="24" height="24" rx="6" fill="url(#a)"/><rect width="24" height="24" rx="6" fill="url(#b)"/><path d="M12 7.385a4.626 4.626 0 0 0-3.268 1.352 4.611 4.611 0 0 0 0 6.526 4.626 4.626 0 0 0 6.536 0 4.611 4.611 0 0 0 0-6.526A4.626 4.626 0 0 0 12 7.385Zm0 7.612c-.796 0-1.56-.316-2.123-.878A2.996 2.996 0 0 1 12 9c.796 0 1.56.316 2.123.878A2.996 2.996 0 0 1 12 14.997Zm4.798-6.727a1.077 1.077 0 1 0 .002-2.154 1.077 1.077 0 0 0-.002 2.153Z" fill="#fff"/><path d="M20.523 6.1a4.595 4.595 0 0 0-2.632-2.627 6.613 6.613 0 0 0-2.185-.42C14.744 3.013 14.44 3 11.998 3c-2.44 0-2.754 0-3.708.054a6.56 6.56 0 0 0-2.183.42A4.599 4.599 0 0 0 3.475 6.1a6.563 6.563 0 0 0-.419 2.181C3.013 9.241 3 9.546 3 11.984c0 2.437 0 2.748.056 3.703.015.746.156 1.483.419 2.182a4.6 4.6 0 0 0 2.633 2.627 6.59 6.59 0 0 0 2.184.45c.962.04 1.267.054 3.708.054 2.44 0 2.754 0 3.708-.055a6.62 6.62 0 0 0 2.185-.418 4.61 4.61 0 0 0 2.632-2.628 6.562 6.562 0 0 0 .419-2.181c.043-.96.056-1.265.056-3.703 0-2.438 0-2.748-.056-3.703a6.558 6.558 0 0 0-.42-2.212Zm-1.217 9.513a5.027 5.027 0 0 1-.311 1.684 2.98 2.98 0 0 1-1.711 1.708c-.535.198-1.1.303-1.67.31-.95.044-1.217.055-3.652.055-2.437 0-2.686 0-3.653-.055a4.966 4.966 0 0 1-1.669-.31 2.985 2.985 0 0 1-1.718-1.708 5.063 5.063 0 0 1-.31-1.665c-.044-.948-.054-1.216-.054-3.647 0-2.432 0-2.68.053-3.648a5.02 5.02 0 0 1 .311-1.683A2.983 2.983 0 0 1 6.64 4.945a5.015 5.015 0 0 1 1.669-.31c.95-.043 1.217-.055 3.653-.055s2.686 0 3.652.055c.57.007 1.135.112 1.67.31a2.99 2.99 0 0 1 1.71 1.709c.197.534.302 1.097.312 1.665.043.95.054 1.216.054 3.648 0 2.431 0 2.693-.043 3.647h-.011v-.001Z" fill="#fff"/><defs><radialGradient id="a" cx="0" cy="0" r="1" gradientUnits="userSpaceOnUse" gradientTransform="matrix(0 -23.7858 22.1226 0 6.375 25.849)"><stop stop-color="#FD5"/><stop offset=".1" stop-color="#FD5"/><stop offset=".5" stop-color="#FF543E"/><stop offset="1" stop-color="#C837AB"/></radialGradient><radialGradient id="b" cx="0" cy="0" r="1" gradientUnits="userSpaceOnUse" gradientTransform="rotate(78.681 -3.065 -1.588) scale(10.6323 43.827)"><stop stop-color="#3771C8"/><stop offset=".128" stop-color="#3771C8"/><stop offset="1" stop-color="#60F" stop-opacity="0"/></radialGradient></defs></svg>