<svg width="24" height="24" viewBox="0 0 24 24" fill="none" xmlns="http://www.w3.org/2000/svg"><path d="M12.01 0C5.377 0 0 5.368 0 11.99c0 5.082 3.163 9.425 7.631 11.171-.109-.947-.198-2.408.04-3.444.217-.937 1.403-5.96 1.403-5.96s-.356-.72-.356-1.777c0-1.668.969-2.91 2.175-2.91 1.028 0 1.522.769 1.522 1.687 0 1.026-.652 2.565-.998 3.996-.287 1.194.603 2.171 1.779 2.171 2.135 0 3.776-2.25 3.776-5.486 0-2.872-2.066-4.876-5.022-4.876-3.42 0-5.426 2.556-5.426 5.201 0 1.027.395 2.132.89 2.734a.357.357 0 0 1 .079.345c-.09.375-.297 1.194-.337 1.362-.049.217-.177.266-.405.158-1.502-.7-2.441-2.882-2.441-4.648 0-3.78 2.748-7.253 7.937-7.253 4.162 0 7.404 2.96 7.404 6.927 0 4.135-2.61 7.46-6.228 7.46-1.215 0-2.362-.63-2.748-1.38l-.75 2.851c-.268 1.046-1 2.349-1.493 3.148A12.08 12.08 0 0 0 11.99 24C18.623 24 24 18.632 24 12.01 24.02 5.368 18.642 0 12.01 0Z" fill="#E60023"/></svg>