<svg width="24" height="24" viewBox="0 0 24 24" fill="none" xmlns="http://www.w3.org/2000/svg"><rect width="24" height="24" rx="6" fill="#E9ECEF"/><path fill-rule="evenodd" clip-rule="evenodd" d="M17.4 15.723c-.684 0-1.296.271-1.764.696l-6.417-3.75a2.97 2.97 0 0 0 .08-.633 2.97 2.97 0 0 0-.08-.632l6.345-3.714a2.683 2.683 0 0 0 1.836.732c1.494 0 2.7-1.211 2.7-2.711A2.701 2.701 0 0 0 17.4 3c-1.494 0-2.7 1.21-2.7 2.71 0 .218.036.426.08.633l-6.344 3.714A2.683 2.683 0 0 0 6.6 9.325a2.702 2.702 0 0 0-2.7 2.711c0 1.5 1.206 2.711 2.7 2.711.71 0 1.35-.28 1.836-.732l6.408 3.76a2.56 2.56 0 0 0-.072.586A2.636 2.636 0 0 0 17.4 21a2.636 2.636 0 0 0 2.628-2.639 2.636 2.636 0 0 0-2.628-2.638Z" fill="#6C757D"/></svg>