<svg width="24" height="24" viewBox="0 0 24 24" fill="none" xmlns="http://www.w3.org/2000/svg"><rect width="24" height="24" rx="6" fill="url(#a)"/><path d="m20.25 5.357-2.609 13.198s-.365.915-1.37.476l-6.02-4.631-2.191-1.063-3.686-1.244s-.566-.201-.621-.64c-.054-.44.64-.678.64-.678l14.653-5.766s1.204-.53 1.204.348Z" fill="#FEFEFE"/><path d="M9.787 18.405s-.176-.016-.395-.712c-.219-.696-1.332-4.357-1.332-4.357L16.911 7.7s.51-.312.493 0c0 0 .09.055-.183.31-.274.257-6.953 6.28-6.953 6.28" fill="#D3E5F1"/><path d="m12.559 16.175-2.382 2.178s-.186.142-.39.053l.456-4.046" fill="#B6D0E4"/><defs><linearGradient id="a" x1="0" y1="0" x2="0" y2="24" gradientUnits="userSpaceOnUse"><stop stop-color="#42BDE9"/><stop offset="1" stop-color="#23A8DD"/></linearGradient></defs></svg>