<svg width="24" height="24" viewBox="0 0 24 24" fill="none" xmlns="http://www.w3.org/2000/svg"><rect width="24" height="24" rx="6" fill="url(#a)"/><path d="M20.675 7.331c.127-.422 0-.731-.6-.731h-1.99c-.507 0-.739.268-.866.562 0 0-1.011 2.467-2.445 4.067-.463.465-.674.612-.926.612-.127 0-.31-.147-.31-.569v-3.94c0-.507-.146-.732-.568-.732H9.843c-.316 0-.506.234-.506.457 0 .48.717.59.79 1.94v2.93c0 .641-.115.758-.37.758-.673 0-2.314-2.476-3.288-5.311-.19-.55-.38-.773-.889-.773H3.591c-.569 0-.682.268-.682.562 0 .528.674 3.141 3.14 6.597 1.644 2.36 3.96 3.64 6.068 3.64 1.264 0 1.42-.284 1.42-.774v-1.784c0-.568.12-.682.521-.682.294 0 .8.148 1.98 1.285 1.35 1.349 1.573 1.954 2.33 1.954h1.99c.567 0 .851-.284.688-.845-.179-.558-.823-1.37-1.678-2.33-.464-.549-1.159-1.139-1.37-1.434-.295-.38-.21-.548 0-.885 0 0 2.425-3.413 2.677-4.574Z" fill="#fff"/><defs><linearGradient id="a" x1="12" y1="0" x2="12" y2="24" gradientUnits="userSpaceOnUse"><stop stop-color="#5595DF"/><stop offset="1" stop-color="#4680C2"/></linearGradient></defs></svg>