<svg width="24" height="24" viewBox="0 0 24 24" fill="none" xmlns="http://www.w3.org/2000/svg">
<path d="M13 3C13 2.44772 12.5523 2 12 2C11.4477 2 11 2.44772 11 3H13ZM11.2929 17.7071C11.6834 18.0976 12.3166 18.0976 12.7071 17.7071L19.0711 11.3431C19.4616 10.9526 19.4616 10.3195 19.0711 9.92893C18.6805 9.53841 18.0474 9.53841 17.6569 9.92893L12 15.5858L6.34315 9.92893C5.95262 9.53841 5.31946 9.53841 4.92893 9.92893C4.53841 10.3195 4.53841 10.9526 4.92893 11.3431L11.2929 17.7071ZM11 3V17H13V3H11Z" fill="white"/>
<line x1="4" y1="20" x2="20" y2="20" stroke="white" stroke-width="2" stroke-linecap="round"/>
</svg>
