<svg width="24" height="24" viewBox="0 0 24 24" fill="none" xmlns="http://www.w3.org/2000/svg">
<g clip-path="url(#clip0_1552:35570)">
<rect width="24" height="24" rx="6" fill="#E9ECEF"/>
<g filter="url(#filter0_d_1552:35570)">
<path d="M3.5 7C3.5 6.73478 3.60536 6.48043 3.79289 6.29289C3.98043 6.10536 4.23478 6 4.5 6H19.5C19.7652 6 20.0196 6.10536 20.2071 6.29289C20.3946 6.48043 20.5 6.73478 20.5 7V17C20.5 17.2652 20.3946 17.5196 20.2071 17.7071C20.0196 17.8946 19.7652 18 19.5 18H4.5C4.23478 18 3.98043 17.8946 3.79289 17.7071C3.60536 17.5196 3.5 17.2652 3.5 17V7Z" fill="#B6D7FF"/>
<mask id="mask0_1552:35570" style="mask-type:alpha" maskUnits="userSpaceOnUse" x="3" y="6" width="18" height="12">
<path d="M3.5 7C3.5 6.73478 3.60536 6.48043 3.79289 6.29289C3.98043 6.10536 4.23478 6 4.5 6H19.5C19.7652 6 20.0196 6.10536 20.2071 6.29289C20.3946 6.48043 20.5 6.73478 20.5 7V17C20.5 17.2652 20.3946 17.5196 20.2071 17.7071C20.0196 17.8946 19.7652 18 19.5 18H4.5C4.23478 18 3.98043 17.8946 3.79289 17.7071C3.60536 17.5196 3.5 17.2652 3.5 17V7Z" fill="#EBEBEB"/>
</mask>
<g mask="url(#mask0_1552:35570)">
<path d="M3.0752 17.6935L12.0002 11L20.9252 17.6935V18.5H3.0752V17.6935V17.6935Z" fill="#85B1E6"/>
<path d="M3.07472 6.329C3.07472 6.6 3.20672 6.8535 3.42822 7.009L11.4267 12.5995C11.5947 12.7168 11.7946 12.7798 11.9995 12.7798C12.2043 12.7798 12.4043 12.7168 12.5722 12.5995L20.5702 7.0085C20.7148 6.90746 20.8234 6.76295 20.8802 6.59597C20.937 6.42899 20.939 6.24825 20.8861 6.08001C20.8331 5.91178 20.7278 5.76483 20.5856 5.66052C20.4434 5.55621 20.2716 5.49998 20.0952 5.5H3.90322C3.44572 5.5 3.07422 5.871 3.07422 6.329H3.07472Z" fill="#689AD6"/>
</g>
</g>
</g>
<defs>
<filter id="filter0_d_1552:35570" x="-8.5" y="-2" width="41" height="36" filterUnits="userSpaceOnUse" color-interpolation-filters="sRGB">
<feFlood flood-opacity="0" result="BackgroundImageFix"/>
<feColorMatrix in="SourceAlpha" type="matrix" values="0 0 0 0 0 0 0 0 0 0 0 0 0 0 0 0 0 0 127 0" result="hardAlpha"/>
<feOffset dy="4"/>
<feGaussianBlur stdDeviation="6"/>
<feColorMatrix type="matrix" values="0 0 0 0 0 0 0 0 0 0 0 0 0 0 0 0 0 0 0.08 0"/>
<feBlend mode="normal" in2="BackgroundImageFix" result="effect1_dropShadow_1552:35570"/>
<feBlend mode="normal" in="SourceGraphic" in2="effect1_dropShadow_1552:35570" result="shape"/>
</filter>
<clipPath id="clip0_1552:35570">
<rect width="24" height="24" fill="white"/>
</clipPath>
</defs>
</svg>
