<svg width="24" height="24" viewBox="0 0 24 24" fill="none" xmlns="http://www.w3.org/2000/svg">
<path d="M12.0099 0C5.37725 0 0 5.36842 0 11.9901C0 17.0724 3.16309 21.4145 7.63095 23.1612C7.52222 22.2138 7.43326 20.7533 7.67049 19.7171C7.88796 18.7796 9.07411 13.7566 9.07411 13.7566C9.07411 13.7566 8.71827 13.0362 8.71827 11.9803C8.71827 10.3125 9.68696 9.06908 10.8929 9.06908C11.9209 9.06908 12.4151 9.83882 12.4151 10.7566C12.4151 11.7829 11.7627 13.3224 11.4168 14.7533C11.1301 15.9474 12.0197 16.9243 13.196 16.9243C15.3311 16.9243 16.972 14.6743 16.972 11.4375C16.972 8.56579 14.9061 6.5625 11.9505 6.5625C8.53046 6.5625 6.52387 9.11842 6.52387 11.7632C6.52387 12.7895 6.91926 13.8947 7.41349 14.4967C7.51234 14.6151 7.52222 14.7237 7.49257 14.8421C7.40361 15.2171 7.19603 16.0362 7.15649 16.2039C7.10707 16.4211 6.97857 16.4704 6.75122 16.3618C5.24875 15.6612 4.30971 13.4803 4.30971 11.7138C4.30971 7.93421 7.05764 4.46053 12.2471 4.46053C16.4085 4.46053 19.6507 7.42105 19.6507 11.3882C19.6507 15.523 17.0411 18.8487 13.4234 18.8487C12.2076 18.8487 11.0609 18.2171 10.6754 17.4671C10.6754 17.4671 10.0725 19.7566 9.92419 20.3191C9.65731 21.3651 8.92584 22.6678 8.43161 23.4671C9.55846 23.8125 10.7446 24 11.9901 24C18.6227 24 23.9999 18.6316 23.9999 12.0099C24.0197 5.36842 18.6425 0 12.0099 0Z" fill="#E60023"/>
</svg>
