<svg width="24" height="24" viewBox="0 0 24 24" fill="none" xmlns="http://www.w3.org/2000/svg">
<rect width="24" height="24" rx="6" fill="#E9ECEF"/>
<path fill-rule="evenodd" clip-rule="evenodd" d="M17.3999 15.7229C16.7159 15.7229 16.1039 15.994 15.6359 16.4187L9.2189 12.6687C9.2639 12.4608 9.2999 12.253 9.2999 12.0361C9.2999 11.8193 9.2639 11.6114 9.2189 11.4036L15.5639 7.68976C16.0499 8.14157 16.6889 8.42169 17.3999 8.42169C18.8939 8.42169 20.0999 7.21084 20.0999 5.71084C20.0999 4.21084 18.8939 3 17.3999 3C15.9059 3 14.6999 4.21084 14.6999 5.71084C14.6999 5.92771 14.7359 6.13554 14.7809 6.34337L8.4359 10.0572C7.9499 9.60542 7.3109 9.3253 6.5999 9.3253C5.1059 9.3253 3.8999 10.5361 3.8999 12.0361C3.8999 13.5361 5.1059 14.747 6.5999 14.747C7.3109 14.747 7.9499 14.4669 8.4359 14.0151L14.8439 17.7741C14.7989 17.9639 14.7719 18.1627 14.7719 18.3614C14.7719 19.8163 15.9509 21 17.3999 21C18.8489 21 20.0279 19.8163 20.0279 18.3614C20.0279 16.9066 18.8489 15.7229 17.3999 15.7229Z" fill="#6C757D"/>
</svg>
