<svg width="24" height="24" viewBox="0 0 24 24" fill="none" xmlns="http://www.w3.org/2000/svg">
<rect width="24" height="24" rx="6" fill="url(#paint0_linear_1552:35557)"/>
<path d="M20.6749 7.33135C20.8019 6.9094 20.6749 6.59998 20.0742 6.59998H18.0842C17.5779 6.59998 17.3465 6.86766 17.2195 7.16166C17.2195 7.16166 16.2077 9.62891 14.774 11.2287C14.3112 11.6942 14.0998 11.8412 13.8475 11.8412C13.7214 11.8412 13.5381 11.6942 13.5381 11.2722V7.33135C13.5381 6.82501 13.392 6.59998 12.9701 6.59998H9.84313C9.52735 6.59998 9.33679 6.83409 9.33679 7.05731C9.33679 7.53642 10.0536 7.64713 10.1271 8.99735V11.9265C10.1271 12.568 10.0119 12.6851 9.75783 12.6851C9.08362 12.6851 7.44302 10.2087 6.46937 7.374C6.27972 6.8232 6.08826 6.60088 5.58011 6.60088H3.59106C3.02212 6.60088 2.90869 6.86857 2.90869 7.16257C2.90869 7.69068 3.5829 10.304 6.04924 13.7604C7.69347 16.1205 10.0083 17.4 12.1171 17.4C13.3811 17.4 13.5372 17.116 13.5372 16.626V14.842C13.5372 14.2739 13.6579 14.1596 14.058 14.1596C14.352 14.1596 14.8584 14.3084 16.0389 15.4454C17.3873 16.7938 17.6106 17.3991 18.3683 17.3991H20.3573C20.9253 17.3991 21.2094 17.115 21.046 16.5543C20.8673 15.9962 20.223 15.1841 19.3682 14.2231C18.9036 13.6751 18.2095 13.0852 17.998 12.7903C17.7031 12.4101 17.7884 12.2423 17.998 11.9047C17.9989 11.9056 20.4226 8.49193 20.6749 7.33135V7.33135Z" fill="white"/>
<defs>
<linearGradient id="paint0_linear_1552:35557" x1="12" y1="0" x2="12" y2="24" gradientUnits="userSpaceOnUse">
<stop stop-color="#5595DF"/>
<stop offset="1" stop-color="#4680C2"/>
</linearGradient>
</defs>
</svg>
